<?xml version="1.0" encoding="utf-8"?>
<!-- Generator: Adobe Illustrator 18.1.0, SVG Export Plug-In . SVG Version: 6.00 Build 0)  -->
<svg version="1.1" id="Layer_1" xmlns="http://www.w3.org/2000/svg" xmlns:xlink="http://www.w3.org/1999/xlink" x="0px" y="0px"
	 viewBox="0 0 128 128" enable-background="new 0 0 128 128" xml:space="preserve">
<g>
	<path fill="#EB2227" d="M88.6,5.1C81,1.8,72.5,0,63.7,0C28.5,0,0,28.5,0,63.7c0,35.2,28.5,63.7,63.7,63.7c17.4,0,33.2-7,44.7-18.3
		c-6.5,5.1-15.2,8.3-25.4,8.3c-29.5,0-55.3-25.6-55.3-63.9c0-29.2,22.8-50.7,46.4-50.7C78.6,2.8,83.7,3.4,88.6,5.1"/>
	<path fill="#EB2227" d="M111.3,71.1c12.6-3.5,16-6.1,16-6.1s-0.8-8-14.7-18.7c-1.7-22.6-11.4-32.6-11.4-32.6s3.1,6.7-5.9,22.1
		C75,26,53.1,23.1,53.1,23.1s16.2,7.7,29.8,29.8C66.2,72.8,51,82,51,82s18.7-1.9,42.4-6.7c7.4,21.6,3.3,32.9,3.3,32.9
		S107.2,95.4,111.3,71.1 M127.4,63.7c0,20.1-13,45.3-38.5,45.3c-16.9,0-44.4-17.9-44.4-56.9c0-23.6,14.5-43.9,37.2-43.9
		C108.6,8.2,127.4,37,127.4,63.7"/>
</g>
</svg>
